# xmcd
#
# Track frame offsets: 
#        150
#        13350
#        29319
#        43546
#        58870
#        75107
#        89993
#        114387
#        130864
#        146652
#        167173
#        185277
#        198128
#        214508
#        228161
#
# Disc length: 3281 seconds
#
# Revision: 0
# Processed by: cddbd v1.5.2PL0 Copyright (c) Steve Scherf et al.
# Submitted via: ExactAudioCopy v0.99pb4
#
DISCID=c60ccf0f
DTITLE=Bharath and his Rhythm Four - Tsunami!
DYEAR=2009
DGENRE=Blues
TTITLE0=Tsunami
TTITLE1=From Sun to Sun
TTITLE2=Hard Hearted Woman
TTITLE3=Bluesy
TTITLE4=Keep Your Hand Outta My Pocket
TTITLE5=It was a Dream
TTITLE6=Blue Lights
TTITLE7=Take Me Back
TTITLE8=That's Alright
TTITLE9=I Been Hollerin'
TTITLE10=Rocker
TTITLE11=Crazy 'Bout That Thing
TTITLE12=Second Son
TTITLE13=Keep Our Business to Yourself
TTITLE14=Instrumental
EXTD=
EXTT0=
EXTT1=
EXTT2=
EXTT3=
EXTT4=
EXTT5=
EXTT6=
EXTT7=
EXTT8=
EXTT9=
EXTT10=
EXTT11=
EXTT12=
EXTT13=
EXTT14=
PLAYORDER=
